<svg width="580" height="134" viewBox="0 0 580 134" fill="none" xmlns="http://www.w3.org/2000/svg">
<g clip-path="url(#clip0_57_12)">
<path d="M338.88 93.3801C329.77 93.3801 321.08 89.95 314.43 83.72L248.29 21.79C244.71 18.4299 240.03 16.5898 235.12 16.5898C224.49 16.5898 215.85 25.23 215.85 35.86V85.1301C215.85 89.6901 212.16 93.3801 207.6 93.3801C203.04 93.3801 199.35 89.6901 199.35 85.1301V35.86C199.35 16.1298 215.4 0.0898438 235.12 0.0898438C244.24 0.0898438 252.92 3.51985 259.57 9.74985L325.71 71.68C329.29 75.04 333.97 76.8801 338.88 76.8801C349.51 76.8801 358.15 68.24 358.15 57.61V8.33984C358.15 3.77984 361.84 0.0898438 366.4 0.0898438C370.96 0.0898438 374.65 3.77984 374.65 8.33984V57.61C374.65 77.34 358.6 93.3801 338.88 93.3801Z" fill="#58595B"/>
<path d="M142.8 93.38H79.2802C56.3703 93.38 37.2703 76.78 33.3603 54.98H8.59033C4.03033 54.98 0.340332 51.29 0.340332 46.73C0.340332 42.17 4.03033 38.48 8.59033 38.48H33.3503C35.0003 29.16 39.4603 20.58 46.3003 13.7501C50.1203 9.93008 54.5203 6.83008 59.3903 4.53008C65.6402 1.58008 72.3302 0.0800781 79.2802 0.0800781H142.8C168.52 0.0800781 189.45 21.01 189.45 46.73C189.45 48.92 188.58 51.02 187.03 52.56C185.48 54.1 183.38 54.98 181.2 54.98H50.2803C53.8803 67.6 65.5202 76.87 79.2802 76.87H142.8C147.36 76.87 151.05 80.56 151.05 85.12C151.05 89.68 147.36 93.37 142.8 93.37V93.38ZM50.2603 38.48H171.79C168.19 25.86 156.55 16.5901 142.79 16.5901H79.2702C74.7702 16.5901 70.4502 17.5501 66.4202 19.46C63.2703 20.95 60.4203 22.95 57.9503 25.42C54.2603 29.11 51.6403 33.59 50.2603 38.48Z" fill="#58595B"/>
<path d="M525.81 93.38H399.41C394.85 93.38 391.16 89.69 391.16 85.13C391.16 80.57 394.85 76.88 399.41 76.88H525.81C531.84 76.88 536.75 71.97 536.75 65.94C536.75 59.91 531.84 55 525.81 55H412C396.86 55 384.55 42.69 384.55 27.55C384.55 12.4096 396.86 0.0996094 412 0.0996094H538.4C542.96 0.0996094 546.65 3.78961 546.65 8.34961C546.65 12.9096 542.96 16.5996 538.4 16.5996H412C405.96 16.5996 401.06 21.51 401.06 27.54C401.06 33.57 405.97 38.49 412 38.49H525.81C540.94 38.49 553.26 50.8 553.26 65.94C553.26 81.08 540.95 93.39 525.81 93.39V93.38Z" fill="#58595B"/>
<path d="M571.41 93.3801C566.85 93.3801 563.16 89.6901 563.16 85.1301V40.1201C563.16 35.5601 566.85 31.8701 571.41 31.8701C575.97 31.8701 579.66 35.5601 579.66 40.1201V85.1301C579.66 89.6901 575.97 93.3801 571.41 93.3801Z" fill="#58595B"/>
<path d="M571.41 22.59C566.85 22.59 563.16 18.8998 563.16 14.3398V8.33984C563.16 3.77984 566.85 0.0898438 571.41 0.0898438C575.97 0.0898438 579.66 3.77984 579.66 8.33984V14.3398C579.66 18.8998 575.97 22.59 571.41 22.59Z" fill="#54C5CF"/>
<path d="M471.31 112.32V133.55H466.4V124.85H456.76V133.55H451.85V112.32H456.76V120.69H466.4V112.32H471.31Z" fill="#54C5CF"/>
<path d="M490.98 132.49C489.21 131.54 487.83 130.23 486.83 128.56C485.83 126.89 485.33 125.02 485.33 122.93C485.33 120.84 485.83 118.97 486.83 117.3C487.83 115.63 489.22 114.32 490.98 113.37C492.75 112.42 494.73 111.94 496.94 111.94C499.15 111.94 501.12 112.42 502.88 113.37C504.64 114.32 506.02 115.63 507.04 117.3C508.05 118.97 508.56 120.84 508.56 122.93C508.56 125.02 508.05 126.89 507.04 128.56C506.03 130.23 504.64 131.54 502.88 132.49C501.12 133.44 499.14 133.92 496.94 133.92C494.74 133.92 492.75 133.45 490.98 132.49ZM500.33 128.87C501.34 128.29 502.13 127.49 502.71 126.46C503.29 125.43 503.57 124.26 503.57 122.94C503.57 121.62 503.28 120.45 502.71 119.42C502.14 118.39 501.34 117.59 500.33 117.01C499.32 116.43 498.19 116.15 496.93 116.15C495.67 116.15 494.54 116.44 493.53 117.01C492.52 117.59 491.73 118.39 491.15 119.42C490.57 120.45 490.29 121.62 490.29 122.94C490.29 124.26 490.58 125.43 491.15 126.46C491.72 127.49 492.52 128.29 493.53 128.87C494.54 129.45 495.67 129.73 496.93 129.73C498.19 129.73 499.32 129.44 500.33 128.87Z" fill="#54C5CF"/>
<path d="M541.88 133.55L541.85 120.81L535.6 131.3H533.39L527.17 121.08V133.54H522.56V112.31H526.62L534.57 125.5L542.39 112.31H546.42L546.48 133.54H541.87L541.88 133.55Z" fill="#54C5CF"/>
<path d="M578.27 129.61V133.55H561.83V112.32H577.87V116.26H566.71V120.87H576.57V124.69H566.71V129.6H578.26L578.27 129.61Z" fill="#54C5CF"/>
</g>
<defs>
<clipPath id="clip0_57_12">
<rect width="580" height="134" fill="white"/>
</clipPath>
</defs>
</svg>
