<?xml version="1.0" ?>
<svg height="72" viewBox="0 0 72 72" width="72" xmlns="http://www.w3.org/2000/svg">
  <linearGradient id="grad" x1="0%" y1="0%" x2="100%" y2="100%">
    <stop offset="0%" style="stop-color:#FED373"/>
    <stop offset="25%" style="stop-color:#F15245"/>
    <stop offset="50%" style="stop-color:#D92E7F"/>
    <stop offset="75%" style="stop-color:#9B36B7"/>
    <stop offset="100%" style="stop-color:#515ECF"/>
  </linearGradient>
  <rect fill="url(#grad)" height="72" rx="8" width="72"/>
  <path d="M36,18.5c5.7,0,6.3,0,8.6,0.1c2.1,0.1,3.2,0.4,3.9,0.7c1,0.4,1.7,0.8,2.4,1.5c0.7,0.7,1.2,1.4,1.5,2.4 c0.3,0.8,0.6,1.9,0.7,3.9c0.1,2.2,0.1,2.9,0.1,8.6s0,6.3-0.1,8.6c-0.1,2.1-0.4,3.2-0.7,3.9c-0.4,1-0.8,1.7-1.5,2.4 c-0.7,0.7-1.4,1.2-2.4,1.5c-0.8,0.3-1.9,0.6-3.9,0.7c-2.2,0.1-2.9,0.1-8.6,0.1s-6.3,0-8.6-0.1c-2.1-0.1-3.2-0.4-3.9-0.7 c-1-0.4-1.7-0.8-2.4-1.5c-0.7-0.7-1.2-1.4-1.5-2.4c-0.3-0.8-0.6-1.9-0.7-3.9c-0.1-2.2-0.1-2.9-0.1-8.6s0-6.3,0.1-8.6 c0.1-2.1,0.4-3.2,0.7-3.9c0.4-1,0.8-1.7,1.5-2.4c0.7-0.7,1.4-1.2,2.4-1.5c0.8-0.3,1.9-0.6,3.9-0.7C29.7,18.5,30.3,18.5,36,18.5 M36,15.5c-5.8,0-6.5,0-8.8,0.1c-2.3,0.1-3.8,0.5-5.2,1c-1.4,0.5-2.6,1.3-3.8,2.5c-1.2,1.2-1.9,2.4-2.5,3.8 c-0.5,1.3-0.9,2.9-1,5.2c-0.1,2.3-0.1,3-0.1,8.8s0,6.5,0.1,8.8c0.1,2.3,0.5,3.8,1,5.2c0.5,1.4,1.3,2.6,2.5,3.8 c1.2,1.2,2.4,1.9,3.8,2.5c1.3,0.5,2.9,0.9,5.2,1c2.3,0.1,3,0.1,8.8,0.1s6.5,0,8.8-0.1c2.3-0.1,3.8-0.5,5.2-1 c1.4-0.5,2.6-1.3,3.8-2.5c1.2-1.2,1.9-2.4,2.5-3.8c0.5-1.3,0.9-2.9,1-5.2c0.1-2.3,0.1-3,0.1-8.8s0-6.5-0.1-8.8 c-0.1-2.3-0.5-3.8-1-5.2c-0.5-1.4-1.3-2.6-2.5-3.8c-1.2-1.2-2.4-1.9-3.8-2.5c-1.3-0.5-2.9-0.9-5.2-1C42.5,15.5,41.8,15.5,36,15.5 L36,15.5z" fill="white"/>
  <path d="M36,24.5c-6.4,0-11.5,5.1-11.5,11.5S29.6,47.5,36,47.5S47.5,42.4,47.5,36S42.4,24.5,36,24.5z M36,44.5 c-4.7,0-8.5-3.8-8.5-8.5s3.8-8.5,8.5-8.5s8.5,3.8,8.5,8.5S40.7,44.5,36,44.5z" fill="white"/>
  <circle cx="47.8" cy="24.2" fill="white" r="2.7"/>
</svg> 